<svg width="168" height="60" viewBox="0 0 325 120" fill="none" xmlns="http://www.w3.org/2000/svg">
<path d="M65.6407 6.10849L80.2104 33.5268L88.6717 64.3874L101.834 84.1254L104.027 100.416L106.534 104.644L116.717 105.898L116.09 114.046L104.027 115.299L96.0386 114.046L77.7083 115.145L71.1273 114.205L70.6597 106.057L83.5084 104.177L83.195 95.8747L77.0865 82.4043L47.1661 85.3789L35.2577 81.6184L30.8703 98.5359V104.177L42.152 105.59L43.7189 114.518L33.2232 114.359L18.6534 116.08L12.545 114.513L0.00976562 114.354V106.365L8.47105 104.958L14.1119 84.7472L27.7415 55.9211L35.2626 26.4683L45.445 6.10352H65.6556L65.6407 6.10849ZM34.4667 79.4247L26.6322 98.8493C25.5876 101.461 25.0653 103.291 25.0653 104.331C25.0653 106.943 26.7367 108.246 30.0794 108.246H41.6745V113.887H0.626579V108.246H4.38715C6.99866 108.246 8.87397 107.644 10.028 106.445C11.1771 105.246 12.4803 102.918 13.9428 99.4761L52.1703 7.04863H63.9196L102.301 99.4761C103.764 102.923 105.067 105.246 106.216 106.445C107.365 107.649 109.245 108.246 111.857 108.246H115.617V113.887H71.5949V108.246H83.19C86.5327 108.246 88.2041 106.943 88.2041 104.331C88.2041 103.286 87.6818 101.461 86.6372 98.8493L78.6485 79.4247H34.4717H34.4667ZM74.5695 69.0831L56.7118 25.2197L38.6949 69.0831H74.5695ZM49.9716 46.5247L47.778 57.8064L41.0428 67.2078L59.6864 66.4268L70.6548 67.6804L67.8343 57.0254L60.94 46.6838L57.8062 30.7064L56.5526 29.4529L49.9716 46.5296V46.5247Z" fill="white"/>
<path d="M200.056 30.0796L179.532 20.9915L158.068 26.7866L141.618 51.0711L152.114 92.4275L186.268 101.356L199.27 93.2084L207.418 78.0119H230.917L212.587 109.972L177.493 119.995L168.405 119.055L138.484 105.739L119.527 71.1176L119.841 50.2802L130.336 26.7816L144.747 12.8387L170.131 0L206.478 7.04858L226.062 34.6211L228.882 49.345H208.672L200.056 30.0746V30.0796ZM158.541 22.638C152.795 26.0355 148.224 30.9949 144.832 37.5211C141.434 44.0474 139.738 51.8023 139.738 60.7859C139.738 69.7695 141.355 77.1564 144.593 83.5782C147.831 90 152.268 94.9096 157.909 98.3021C163.55 101.7 169.818 103.396 176.707 103.396C184.855 103.396 192.112 101.177 198.484 96.7402C204.852 92.3031 208.876 86.0653 210.547 78.0219H224.331C222.033 89.9304 216.601 99.1975 208.04 105.828C199.474 112.464 188.929 115.777 176.394 115.777C166.365 115.777 157.252 113.374 149.055 108.569C140.852 103.769 134.405 97.158 129.705 88.7514C125.004 80.3449 122.656 71.023 122.656 60.7859C122.656 50.5488 125.004 41.0479 129.705 32.5866C134.405 24.1254 140.852 17.4449 149.055 12.5352C157.252 7.6256 166.365 5.17327 176.394 5.17327C184.855 5.17327 192.61 7.00381 199.658 10.6549C206.707 14.3111 212.507 19.4843 217.048 26.1648C221.59 32.8503 224.435 40.5754 225.584 49.35H211.801C210.756 42.4556 208.562 36.6357 205.22 31.8803C201.877 27.1298 197.778 23.5533 192.923 21.1507C188.068 18.7481 182.92 17.5493 177.493 17.5493C170.598 17.5493 164.281 19.2505 158.536 22.643L158.541 22.638Z" fill="white"/>
<path d="M289.509 103.55L299.692 104.336V115.458H278.541L261.151 114.677L252.849 115.15L252.222 105.281L264.757 104.5L266.324 100.272L267.732 71.9184L264.911 59.3832L266.319 26.7965L264.285 22.0958H238.906L228.877 23.036V13.3212L229.191 3.45215H272.427L289.658 5.17326L317.39 4.38732L324.285 6.10842L324.752 21.9317L302.507 20.3648L294.205 21.7725L286.997 22.2451L287.937 44.8035L286.53 54.2049L288.251 88.3585L286.997 101.207L289.504 103.555L289.509 103.55ZM286.142 105.977C287.027 106.868 288.514 107.311 290.608 107.311H298.443V113.892H254.734V107.311H262.568C264.658 107.311 266.145 106.868 267.035 105.977C267.921 105.092 268.368 103.605 268.368 101.511V19.4246H231.081V7.04857H322.255V19.4246H284.813V101.515C284.813 103.605 285.256 105.097 286.147 105.982L286.142 105.977Z" fill="white"/>
</svg>
