<svg width="168" height="60" viewBox="0 0 317 120" fill="none" xmlns="http://www.w3.org/2000/svg">
<path d="M103.624 3.7207L115.537 29.4755L113.306 59.5511L116.431 79.2029L112.115 92.7516L112.857 97.5168L113.599 99.3037L114.195 112.106L102.731 114.786L93.4983 112.848L76.0778 115.528L56.2748 112.106L55.6792 97.8146L57.4661 97.5168L57.3196 96.6233L56.8752 96.3255L56.4308 95.5833L57.0265 96.1789L57.7687 96.7746L58.0665 97.6681L59.8534 97.8146V114.19L34.0986 113.443L20.2521 115.826L11.7665 111.808L1.34258 113.741L0.00473022 100.344L1.34258 96.9212L1.48913 75.1846L6.25434 54.0437L2.83171 30.6668L6.25434 6.10331L103.624 3.7207ZM34.9874 76.9716L27.5418 95.432C26.549 97.9139 26.0526 99.6536 26.0526 100.642C26.0526 103.123 27.641 104.362 30.8178 104.362H41.8374V109.723H2.82698V104.362H6.40088C8.88276 104.362 10.665 103.79 11.7617 102.651C12.8538 101.511 14.0923 99.299 15.4822 96.0229L51.8122 8.18808H62.9783L99.4548 96.0277C100.845 99.3038 102.083 101.511 103.175 102.655C104.267 103.799 106.054 104.367 108.536 104.367H112.11V109.728H70.2726V104.367H81.2922C84.469 104.367 86.0574 103.128 86.0574 100.646C86.0574 99.6536 85.561 97.9186 84.5682 95.4368L76.976 76.9763H34.9921L34.9874 76.9716ZM73.0996 67.1433L56.1283 25.4572L39.0057 67.1433H73.0996ZM57.0217 48.6829L55.6839 55.235L52.11 55.6841L55.5326 52.7059L58.8087 54.0437L56.7239 55.9772L53.7457 50.7677L55.6792 48.2385L55.977 46.4516L57.017 48.6829H57.0217Z" fill="white"/>
<path d="M179.258 61.7869L167.94 64.1696L157.072 57.0217L154.841 54.4926L158.263 55.0882L164.816 56.7239L176.431 59.5509L188.344 54.3413L224.82 62.0848L215.143 115.533H170.923L139.954 114.488L116.875 109.723L111.216 77.1179L112.408 49.2783L114.043 10.8683L129.677 8.18783L151.413 0L210.818 3.5739L223.024 27.9909L224.811 62.0848L184.76 65.3609L179.253 61.7869H179.258ZM152.907 23.0035C147.447 26.2323 143.103 30.9455 139.879 37.1478C136.65 43.3501 135.038 50.7201 135.038 59.2578C135.038 67.7955 136.574 74.8156 139.652 80.9187C142.729 87.0217 146.946 91.6877 152.307 94.9118C157.668 98.1406 163.624 99.7526 170.172 99.7526C177.915 99.7526 184.812 97.6442 190.868 93.4226C196.919 89.2058 200.744 83.2777 202.332 75.6335H215.432C213.248 86.9508 208.085 95.7579 199.95 102.06C191.809 108.366 181.787 111.514 169.874 111.514C160.343 111.514 151.683 109.231 143.892 104.664C136.097 100.098 129.97 93.8197 125.503 85.8304C121.035 77.8412 118.804 68.982 118.804 59.2531C118.804 49.5241 121.035 40.4948 125.503 32.4535C129.97 24.4122 136.097 18.0633 143.892 13.3974C151.683 8.73148 160.343 6.40088 169.874 6.40088C177.915 6.40088 185.285 8.14056 191.984 11.6105C198.683 15.0851 204.195 19.9968 208.511 26.3505C212.827 32.7041 215.531 40.0457 216.623 48.3848H203.523C202.531 41.8326 200.446 36.3016 197.269 31.7822C194.092 27.2676 190.197 23.8686 185.583 21.5852C180.969 19.3019 176.076 18.1626 170.919 18.1626C164.367 18.1626 158.363 19.7794 152.903 23.0035H152.907Z" fill="white"/>
<path d="M313.402 96.1786L312.655 113.15L306.85 120L279.606 116.426L266.951 119.253L247.743 116.87L224.22 115.533L216.477 93.0491L222.731 86.6482L226.153 77.8647L223.922 66.6986L226.007 56.7238L224.22 44.513L225.113 40.6412L219.606 39.1521L217.673 36.7695L214.099 28.4304L212.463 15.7752L214.992 2.6756L261.146 0.59082L280.055 3.71562L309.086 1.92867L316.083 5.8004L316.229 27.986L313.846 38.4099L310.57 42.726L310.424 47.4912V59.5508L309.086 69.0812L311.615 84.7147L310.868 89.6264L313.397 96.1786H313.402ZM274.17 102.206C275.011 103.052 276.424 103.473 278.415 103.473H285.86V109.727H244.321V103.473H251.766C253.752 103.473 255.165 103.052 256.012 102.206C256.853 101.365 257.279 99.951 257.279 97.9655V19.9495H221.842V8.18773H308.49V19.9495H272.907V97.9655C272.907 99.951 273.328 101.365 274.174 102.206H274.17Z" fill="white"/>
</svg>
