<svg width="343" height="343" viewBox="0 0 343 343" fill="none" xmlns="http://www.w3.org/2000/svg">
<path fill-rule="evenodd" clip-rule="evenodd" d="M21.8229 343L3.96248 337.974L-4.46475e-05 255.354L-5.9972e-05 343L343 343L343 5.9972e-05L243.444 4.25651e-05L337.824 4.60758L343 33.5722L339.651 61.5465L332.344 79.9771L328.385 85.2441L335.601 89.3383L338.692 97.0525L335.039 146.757L339.302 168.807L335.953 214.803L342.956 234.221L335.996 248.412L343 336.972L272.061 334.444L232.785 339.708L77.54 335.101L21.8229 343ZM243.439 4.25642e-05L75.4065 8.55583L16.0369 4.60752L1.72609 13.1635L1.42228 62.2031L6.29462 85.2414L4.56844 93.1693L4.87221 103.703L4.8722 153.077L7.61093 174.142L3.65471 230.01L5.17596 240.872L-4.46471e-05 255.352L0 0L243.439 4.25642e-05Z" fill="white"/>
</svg>
