<svg width="346" height="120" viewBox="0 0 346 120" fill="none" xmlns="http://www.w3.org/2000/svg">
<path d="M36.2537 80.7298L27.8604 101.54C26.7413 104.338 26.1817 106.299 26.1817 107.412C26.1817 110.21 27.9723 111.606 31.5534 111.606H43.9755V117.65H0V111.606H4.02878C6.82654 111.606 8.8356 110.962 10.0719 109.677C11.303 108.393 12.6992 105.899 14.2659 102.211L55.2198 3.18652H67.8071L108.926 102.206C110.493 105.899 111.889 108.388 113.12 109.672C114.351 110.962 116.366 111.601 119.163 111.601H123.192V117.644H76.0298V111.601H88.4519C92.033 111.601 93.8236 110.205 93.8236 107.407C93.8236 106.288 93.2641 104.332 92.145 101.535L83.5865 80.7245H36.259L36.2537 80.7298ZM67.4714 4.52945L82.5739 34.5694L91.6387 65.9523L105.569 89.1124L108.42 104.551L112.449 109.752L122.856 110.759L122.521 116.968L109.427 117.804L101.876 116.296L84.2526 117.975L76.3656 116.968L76.0298 110.759L91.9744 109.752L91.303 99.3443L84.5883 81.5558L49.8481 82.563L36.0831 80.3834L29.539 100.858L27.8604 109.416L43.6344 110.589L44.4711 117.975L34.9054 116.802L19.2966 118.646L12.7525 116.968L0.500933 117.303L0 110.924L9.56568 110.423L18.4599 87.2633L32.891 61.4173L38.2627 35.907L53.3653 4.52412H67.466L67.4714 4.52945ZM79.222 69.6507L60.0906 22.6589L40.7887 69.6507H79.222ZM51.5268 41.1188L47.3328 56.8929L41.2896 69.315L65.1212 68.9792L78.2148 69.9864L74.8574 56.2214L65.7927 39.9411L62.2702 21.3107L60.5915 20.6392L51.5268 41.1135V41.1188Z" fill="black"/>
<path d="M216.168 26.1817L192.838 14.6017L166.821 21.8172L146.347 51.3563L159.941 94.9907L192.166 107.748L214.991 98.6837L224.556 79.2166H242.515L224.727 110.6L189.48 120H179.744L150.376 106.571L130.738 73.8449L129.731 50.1785L141.647 24.8335L155.406 11.5747L180.592 0L215.167 5.87264L238.327 32.0544L242.02 48.4999H225.574L216.174 26.1764L216.168 26.1817ZM169.177 19.8881C163.022 23.5278 158.124 28.8409 154.49 35.8327C150.85 42.8244 149.033 51.1324 149.033 60.7567C149.033 70.381 150.765 78.2947 154.234 85.1745C157.703 92.0544 162.457 97.3141 168.5 100.949C174.543 104.588 181.258 106.406 188.639 106.406C197.368 106.406 205.143 104.029 211.969 99.2699C218.79 94.5164 223.102 87.8337 224.892 79.2166H239.659C237.197 91.9744 231.378 101.902 222.206 109.006C213.03 116.115 201.732 119.664 188.303 119.664C177.559 119.664 167.797 117.09 159.014 111.942C150.227 106.795 143.32 99.7176 138.284 90.7114C133.248 81.7053 130.733 71.7186 130.733 60.7514C130.733 49.7842 133.248 39.6056 138.284 30.5409C143.32 21.4762 150.227 14.3192 159.014 9.05942C167.797 3.79963 177.559 1.1724 188.303 1.1724C197.368 1.1724 205.676 3.13349 213.227 7.04503C220.778 10.9619 226.992 16.5041 231.857 23.6611C236.723 30.8233 239.771 39.0994 241.002 48.4999H226.235C225.116 41.1138 222.766 34.8788 219.185 29.7842C215.604 24.6949 211.212 20.8633 206.011 18.2894C200.81 15.7154 195.295 14.4311 189.48 14.4311C182.094 14.4311 175.326 16.2537 169.171 19.8881H169.177Z" fill="black"/>
<path d="M308.143 109.763H318.886L318.38 117.65L306.629 117.484L297.735 118.156L280.112 116.813L272.054 117.985L271.383 109.928L286.32 109.592L286.155 101.199L288.335 71.9954L285.148 58.2304L286.826 24.1617L285.649 16.7756L266.011 16.6104L256.611 17.2819L246.374 17.7828V9.89577L247.551 2.68021L290.514 1.50781L309.981 2.85074L339.52 2.51501L344.556 4.35887L345.398 17.2819L322.739 15.2675L314.181 17.4471L304.109 16.6104L305.617 42.9627L303.602 53.7061L305.617 90.4607L304.444 104.892L308.137 109.757L308.143 109.763ZM305.878 109.176C306.826 110.13 308.42 110.605 310.663 110.605H319.057V117.655H272.23V110.605H280.623C282.862 110.605 284.455 110.13 285.409 109.176C286.363 108.222 286.837 106.634 286.837 104.391V16.4452H246.89V3.18647H344.567V16.4452H304.455V104.391C304.455 106.629 304.929 108.222 305.883 109.176H305.878Z" fill="black"/>
</svg>
