<svg width="168" height="60" viewBox="0 0 322 120" fill="none" xmlns="http://www.w3.org/2000/svg">
<path d="M89.8853 4.86816L102.359 28.5939L104.489 61.1425L110.419 80.9131L109.052 94.5989L110.878 99.6164L115.137 101.442L115.441 113.911L102.818 116.345L94.2992 114.37L76.5037 116.803L61.7506 114.065L60.6882 99.771L65.0972 98.8583L65.5511 94.7535L62.813 91.1026L51.5562 92.3196L49.2768 91.8608L47.7556 97.0328L48.9726 99.6164L54.4489 99.7661L54.5986 116.04L33.4565 114.823L20.0749 117.407L10.798 113.607L0.608475 114.215L0 101.896L3.34661 99.6164L5.47628 81.9755L12.9277 62.5091L13.5362 32.3944L20.6833 5.93058L89.8853 4.86816ZM34.5237 78.4792L26.9178 97.3371C25.9037 99.8724 25.3966 101.65 25.3966 102.659C25.3966 105.194 27.0192 106.459 30.2644 106.459H41.5212V111.936H1.67089V106.459H5.32174C7.85706 106.459 9.67765 105.875 10.798 104.711C11.9136 103.547 13.1788 101.287 14.5986 97.9455L51.7107 8.21478H63.1172L100.379 97.9455C101.799 101.292 103.064 103.547 104.18 104.711C105.295 105.88 107.121 106.459 109.656 106.459H113.307V111.936H70.5686V106.459H81.8254C85.0706 106.459 86.6932 105.194 86.6932 102.659C86.6932 101.645 86.1862 99.8724 85.172 97.3371L77.4164 78.4792H34.5286H34.5237ZM73.4565 68.4393L56.1198 25.8557L38.6285 68.4393H73.4565ZM53.5313 48.3645L52.1647 58.2498L49.2768 61.1376L56.8828 59.4667L62.6633 60.3794L61.7506 59.0128L55.9701 49.736L56.424 44.5639L55.8155 43.0427L53.5362 48.3645H53.5313Z" fill="black"/>
<path d="M185.397 51.4065L173.382 48.6684L159.087 45.7805L151.177 54.9076L157.87 66.9226L169.885 70.1147L185.092 71.6359L193.915 61.2918L226.614 68.439L215.057 112.848L173.387 117.866L150.115 115.586L124.414 110.718L114.833 77.8655L114.379 50.1847L117.875 16.1149L133.541 8.50899L154.828 0L211.711 4.40903L223.571 31.7856L226.614 59.3118L191.481 63.5712L185.397 51.4065ZM154.978 23.3442C149.4 26.6425 144.962 31.4572 141.669 37.7931C138.37 44.1289 136.723 51.6576 136.723 60.3791C136.723 69.1006 138.293 76.2719 141.437 82.5063C144.581 88.7408 148.888 93.5072 154.364 96.8007C159.841 100.099 165.925 101.746 172.614 101.746C180.524 101.746 187.57 99.5919 193.756 95.2795C199.937 90.9719 203.844 84.9161 205.467 77.1073H218.848C216.617 88.6684 211.344 97.6651 203.033 104.102C194.717 110.544 184.479 113.761 172.31 113.761C162.574 113.761 153.727 111.428 145.768 106.763C137.805 102.098 131.547 95.6851 126.983 87.5238C122.419 79.3625 120.14 70.3127 120.14 60.3743C120.14 50.4358 122.419 41.2121 126.983 32.9977C131.547 24.7833 137.805 18.2977 145.768 13.5313C153.727 8.76494 162.574 6.38416 172.31 6.38416C180.524 6.38416 188.053 8.16129 194.896 11.7059C201.739 15.2553 207.369 20.2728 211.778 26.7632C216.187 33.2536 218.95 40.7533 220.065 49.272H206.684C205.669 42.5788 203.54 36.9286 200.295 32.312C197.049 27.7001 193.07 24.2279 188.357 21.8954C183.644 19.563 178.645 18.3991 173.377 18.3991C166.684 18.3991 160.551 20.0459 154.973 23.3394L154.978 23.3442Z" fill="black"/>
<path d="M307.676 98.0995L310.868 107.835L308.285 119.696L283.492 117.566L271.477 120L253.227 117.416L235.89 116.653L229.048 97.6407L239.237 93.2317L243.801 85.476L240.758 71.4859L239.541 55.5159L241.821 39.3961L237.257 37.421L230.868 34.9871L225.242 35.441L219.462 27.9896L217.94 15.9746L218.549 2.74271L265.546 0.767578L284.559 3.80995L311.781 2.13906L320.908 5.63538L321.063 27.8399L310.264 36.0543L303.267 36.3585L299.92 39.0967L301.137 53.6953L298.858 62.6679L302.205 85.9396L303.875 93.0868L307.676 98.1043V98.0995ZM278.856 104.257C279.715 105.121 281.159 105.551 283.192 105.551H290.798V111.94H248.364V105.551H255.97C257.998 105.551 259.442 105.121 260.307 104.257C261.171 103.392 261.601 101.953 261.601 99.9201V20.2291H225.402V8.21416H313.915V20.2291H277.566V99.9249C277.566 101.953 277.996 103.397 278.86 104.261L278.856 104.257Z" fill="black"/>
</svg>
