<svg width="168" height="60" viewBox="0 0 325 120" fill="none" xmlns="http://www.w3.org/2000/svg">
<path d="M75.4646 6.02983L88.1427 27.5266L94.9482 62.3202L103.61 82.2703L105.466 96.0335L108.559 101.135L116.293 102.991V115.051L102.687 117.368L94.8009 115.203L76.7069 117.52L67.1173 115.512L65.7277 101.287L72.8426 99.5885L74.0799 92.6308L68.8211 85.0544L46.5534 88.4571L41.1424 86.9104L37.4303 96.8093L39.4386 101.14H48.7188L48.871 117.378L32.7902 115.679L19.8027 118.615L9.90382 114.903L0.00488281 114.132V103.153L5.57303 101.764L9.90382 88.4669L19.955 70.8394L24.7473 34.1897L35.7265 5.58301L75.4695 6.04948L75.4646 6.02983ZM34.0226 79.6384L26.2891 98.8127C25.258 101.391 24.7424 103.197 24.7424 104.224C24.7424 106.802 26.3922 108.088 29.6919 108.088H41.1375V113.656H0.618656V108.088H4.33076C6.9086 108.088 8.75974 107.494 9.8989 106.311C11.0332 105.127 12.3196 102.829 13.7632 99.4265L51.498 8.19523H63.0958L100.983 99.4314C102.426 102.834 103.713 105.127 104.847 106.315C105.981 107.504 107.837 108.093 110.415 108.093H114.127V113.661H70.6723V108.093H82.1179C85.4175 108.093 87.0674 106.806 87.0674 104.229C87.0674 103.197 86.5518 101.395 85.5207 98.8176L77.6349 79.6433H34.0276L34.0226 79.6384ZM73.6086 69.4301L55.981 26.1321L38.1963 69.4301H73.6086ZM49.637 47.624L48.5568 61.0779L46.3914 66.4889L58.1464 66.0225L66.4986 66.6412L66.9602 62.001L58.1464 48.5471L56.909 40.5042L55.6716 39.1147L49.6419 47.6191L49.637 47.624Z" fill="white"/>
<path d="M190.829 40.3617L178.304 32.3188L160.519 33.8655L146.599 55.053L156.807 78.8674L174.125 83.6597H193.299L198.867 68.1976L227.322 74.6937L214.177 109.487L175.205 119.696L160.052 116.293L131.755 111.034L117.992 78.2487L116.136 50.8793L121.547 21.4968L136.857 8.66157L157.735 0L211.86 5.10168L223.148 35.4123L227.631 55.981L197.478 61.392L190.829 40.3617ZM156.497 23.5836C150.826 26.9373 146.314 31.8327 142.965 38.2749C139.611 44.7171 137.937 52.372 137.937 61.2398C137.937 70.1076 139.533 77.3992 142.729 83.7383C145.926 90.0773 150.306 94.9237 155.874 98.2724C161.442 101.626 167.629 103.3 174.429 103.3C182.472 103.3 189.636 101.111 195.926 96.7257C202.211 92.3458 206.184 86.1885 207.833 78.2487H221.44C219.171 90.0037 213.809 99.1514 205.359 105.697C196.903 112.247 186.494 115.517 174.12 115.517C164.221 115.517 155.226 113.145 147.134 108.402C139.037 103.659 132.673 97.1382 128.033 88.84C123.393 80.5418 121.075 71.3401 121.075 61.2349C121.075 51.1298 123.393 41.7513 128.033 33.3991C132.673 25.0469 139.037 18.4525 147.134 13.6061C155.226 8.75977 164.221 6.33905 174.12 6.33905C182.472 6.33905 190.127 8.146 197.085 11.7501C204.043 15.3591 209.768 20.4607 214.251 27.06C218.734 33.6593 221.543 41.2848 222.677 49.9464H209.071C208.04 43.1409 205.874 37.396 202.575 32.7018C199.275 28.0126 195.229 24.4822 190.437 22.1106C185.644 19.7389 180.562 18.5556 175.205 18.5556C168.4 18.5556 162.164 20.2349 156.493 23.5836H156.497Z" fill="white"/>
<path d="M300.312 99.5879L307.427 101.906L308.198 118.762L286.082 118.144L274.946 120L257.78 117.373H246.953L240.923 101.91L255.148 99.5928L261.025 92.7873L257.161 75.7784L252.369 54.2817L259.017 33.87H248.966L241.39 30.6244L232.109 33.87L224.067 27.3738L222.677 16.0853L221.287 2.78854L268.916 0.780273L287.938 4.02591L313.299 2.16986L324.436 5.57261V27.3787L304.952 33.5656L294.125 29.5441L287.477 30.315L290.104 47.3239L286.701 55.8284L290.874 86.7576L295.205 96.0379L300.307 99.5928L300.312 99.5879ZM282.449 105.848C283.323 106.727 284.791 107.164 286.858 107.164H294.591V113.661H251.446V107.164H259.179C261.242 107.164 262.71 106.727 263.589 105.848C264.463 104.974 264.905 103.506 264.905 101.444V20.4112H228.098V8.19465H318.097V20.4112H281.138V101.444C281.138 103.506 281.575 104.974 282.454 105.848H282.449Z" fill="white"/>
</svg>
