<svg width="515" height="650" viewBox="0 0 515 650" fill="none" xmlns="http://www.w3.org/2000/svg">
<path d="M515 650L515 6.10352e-05L-4.21036e-06 1.60124e-05L-6.10352e-05 650L515 650ZM11.6829 15.2344L54.075 4.78487L186.321 21.2093L247.744 8.20957L340.964 19.1556L509.341 13.8994L492.718 128.654L509.238 158.16L492.615 198.535L500.563 294.172L490.446 340.021L499.115 443.369L491.779 459.409L474.653 467.922L484.049 478.873L501.393 517.195L509.341 575.361L497.055 635.586L273.036 645.166L181.257 630.796L40.3416 639.005L6.37451 621.215L5.65348 519.249L17.2182 471.346L13.121 454.862L13.842 432.959L13.842 330.3L20.3424 286.499L10.9523 170.336L14.5631 147.75L2.27745 117.643L11.6829 15.2344Z" fill="white"/>
</svg>
