<svg width="834" height="1000" viewBox="0 0 834 1000" fill="none" xmlns="http://www.w3.org/2000/svg">
<path fill-rule="evenodd" clip-rule="evenodd" d="M-242.25 0L-242.25 1054L738.584 1054L1075.25 1054L1075.25 986.94L1075.25 -5.75898e-05L1052.1 -5.65776e-05L-113.295 -5.63679e-06L-242.25 0ZM-113.295 -5.63679e-06L-224.552 15.9055L-242.25 305.932L-209.386 822.284L-224.551 1004.72L-191.687 1048.7L-3.32045 1049.63L85.172 1034.66L115.624 1039.96L156.086 1039.03L345.734 1039.03L426.649 1030.61L641.243 1042.77L682.966 1038.09L738.584 1054L1055.95 1041.82L1075.25 986.94L1044.91 815.728L1062.61 338.677L1042.39 217.988L1052.1 -5.65776e-05L711.926 21.521L657.419 0.133261L582.832 21.6544L406.157 11.3642L321.459 24.4621L130.539 13.2385L100.908 22.7359L85.1819 44.9089L64.9508 32.7446L-5.84309 10.29L-113.295 -5.63679e-06Z" fill="#EFEFEF"/>
</svg>
